# xmcd
#
# Track frame offsets: 
#        150
#        15486
#        28756
#        42970
#        58308
#        70387
#        85126
#        100712
#        114828
#        128008
#        142754
#
# Disc length: 2583 seconds
#
# Revision: 4
# Processed by: cddbd v1.5.2PL0 Copyright (c) Steve Scherf et al.
# Submitted via: ExactAudioCopy v1.0b6
#
DISCID=880a150b
DTITLE=the Rolling Stones - Aftermath US (Mono)
DYEAR=1966
DGENRE=Pop
TTITLE0=Paint it, black
TTITLE1=Stupid girl
TTITLE2=Lady Jane
TTITLE3=Under my thumb
TTITLE4=Doncha bother me
TTITLE5=Think
TTITLE6=Flight 505
TTITLE7=High and dry
TTITLE8=It's not easy
TTITLE9=I am waiting
TTITLE10=Going home
EXTD=YEAR: 1966
EXTT0=
EXTT1=
EXTT2=
EXTT3=
EXTT4=
EXTT5=
EXTT6=
EXTT7=
EXTT8=
EXTT9=
EXTT10=
PLAYORDER=
